<svg xmlns="http://www.w3.org/2000/svg" width="17" height="16" viewBox="0 0 17 16" fill="none">
    <path fill-rule="evenodd" clip-rule="evenodd" d="M16.4168 0.210288C17.0122 0.600491 17.1791 1.39948 16.7897 1.99614L8.03282 15.4158C7.93079 15.5722 7.79609 15.7044 7.63803 15.8035C7.47998 15.9026 7.30234 15.9661 7.11738 15.9897C6.93243 16.0133 6.74457 15.9963 6.5668 15.94C6.38903 15.8837 6.22558 15.7893 6.08776 15.6635L0.42153 10.5021C0.16879 10.2719 0.0176851 9.95047 0.00145593 9.60859C-0.0147732 9.26671 0.105203 8.93237 0.334991 8.67912C0.564779 8.42588 0.885557 8.27447 1.22676 8.25821C1.56795 8.24195 1.90163 8.36217 2.15437 8.59241L6.70383 12.736L14.6345 0.583974C14.8214 0.297649 15.1142 0.0974351 15.4484 0.027359C15.7826 -0.0427171 16.131 0.0230823 16.4168 0.210288Z" fill="#2FC77E"/>
</svg>