<svg xmlns="http://www.w3.org/2000/svg" width="15" height="16" viewBox="0 0 15 16" fill="none">
    <path d="M2.23652 0.392699L7.5 6.00684L12.7362 0.421788C12.8519 0.290477 12.9912 0.185433 13.1459 0.112955C13.3005 0.0404768 13.4673 0.00205708 13.6362 0C13.9978 0 14.3447 0.153235 14.6004 0.425996C14.8561 0.698756 14.9998 1.0687 14.9998 1.45444C15.003 1.63276 14.9719 1.80989 14.9086 1.97496C14.8453 2.14003 14.751 2.28956 14.6316 2.41437L9.32722 7.99943L14.6316 13.6572C14.8563 13.8917 14.9881 14.2093 14.9998 14.5444C14.9998 14.9302 14.8561 15.3001 14.6004 15.5729C14.3447 15.8456 13.9978 15.9989 13.6362 15.9989C13.4624 16.0065 13.289 15.9756 13.127 15.908C12.9651 15.8404 12.818 15.7376 12.6953 15.6062L7.5 9.99201L2.25016 15.5916C2.13494 15.7185 1.9973 15.8199 1.84517 15.8898C1.69304 15.9597 1.52945 15.9967 1.36382 15.9989C1.00217 15.9989 0.655334 15.8456 0.39961 15.5729C0.143886 15.3001 0.000221866 14.9302 0.000221866 14.5444C-0.00295735 14.3661 0.0280602 14.189 0.0913714 14.0239C0.154682 13.8588 0.248952 13.7093 0.368393 13.5845L5.67278 7.99943L0.368393 2.34165C0.143652 2.10713 0.0118665 1.78956 0.000221866 1.45444C0.000221866 1.0687 0.143886 0.698756 0.39961 0.425996C0.655334 0.153235 1.00217 0 1.36382 0C1.69108 0.00436332 2.00471 0.145444 2.23652 0.392699Z" fill="#DD2113"/>
</svg>