<svg width="26" height="19" viewBox="0 0 26 19" fill="none" xmlns="http://www.w3.org/2000/svg">
<path id="Vector" d="M0.866478 9.5L0.0621993 9.17873C-0.0207331 9.38494 -0.0207331 9.61506 0.0621993 9.82127L0.866478 9.5ZM25.1335 9.5L25.9378 9.82127C26.0207 9.61506 26.0207 9.38494 25.9378 9.17873L25.1335 9.5ZM13 17.2727C8.98901 17.2727 6.17229 15.2829 4.328 13.2413C3.32022 12.1179 2.47484 10.8598 1.81636 9.50345C1.76812 9.40072 1.72189 9.29707 1.67769 9.19255L1.67076 9.18046L0.866478 9.5L0.0621993 9.82127V9.82473L0.0673993 9.83164C0.0818321 9.86815 0.0968565 9.90443 0.112467 9.94045L0.247669 10.2393C0.978291 11.7478 1.91768 13.1467 3.03838 14.3951C5.09588 16.6716 8.3442 19 13 19V17.2727ZM0.866478 9.5L1.67076 9.82127L1.67769 9.80746C1.71999 9.70212 1.76624 9.59841 1.81636 9.49655C2.47484 8.14015 3.32022 6.88206 4.328 5.75873C6.17056 3.71709 8.98901 1.72727 13 1.72727V0C8.3442 0 5.09414 2.32836 3.03838 4.60491C1.91767 5.8533 0.978271 7.25221 0.247669 8.76073C0.184679 8.89532 0.124576 9.03122 0.0673993 9.16836L0.0639326 9.17527V9.177H0.0604659L0.866478 9.5ZM13 1.72727C17.011 1.72727 19.8277 3.71709 21.672 5.75873C22.6797 6.88209 23.5251 8.14018 24.1836 9.49655C24.232 9.59921 24.2783 9.70287 24.3223 9.80746L24.3292 9.81955L25.1335 9.5L25.9378 9.17873V9.17527L25.9326 9.16836C25.9195 9.13134 25.9044 9.09502 25.8875 9.05955C25.6836 8.60404 25.458 8.15848 25.2115 7.72436C24.576 6.60714 23.8217 5.56131 22.9616 4.60491C20.9041 2.32836 17.6558 0 13 0V1.72727ZM25.1335 9.5C24.865 9.39388 24.5969 9.28679 24.3292 9.17873L24.324 9.19255L24.298 9.253L24.1836 9.50345C23.5251 10.8598 22.6797 12.1179 21.672 13.2413C19.8294 15.2829 17.011 17.2727 13 17.2727V19C17.6558 19 20.9059 16.6716 22.9616 14.3968C24.0825 13.1479 25.0219 11.7484 25.7523 10.2393C25.8153 10.1047 25.8754 9.96875 25.9326 9.83164L25.9361 9.82473V9.823L25.9378 9.82127L25.1335 9.5ZM13 12.0909C12.3104 12.0909 11.6491 11.8179 11.1615 11.3321C10.6739 10.8462 10.4 10.1872 10.4 9.5H8.6666C8.6666 10.6453 9.12315 11.7436 9.93582 12.5534C10.7485 13.3632 11.8507 13.8182 13 13.8182V12.0909ZM15.6 9.5C15.6 10.1872 15.3261 10.8462 14.8385 11.3321C14.3509 11.8179 13.6896 12.0909 13 12.0909V13.8182C14.1493 13.8182 15.2515 13.3632 16.0642 12.5534C16.8768 11.7436 17.3334 10.6453 17.3334 9.5H15.6ZM13 6.90909C13.6896 6.90909 14.3509 7.18206 14.8385 7.66795C15.3261 8.15384 15.6 8.81285 15.6 9.5H17.3334C17.3334 8.35475 16.8768 7.2564 16.0642 6.44658C15.2515 5.63677 14.1493 5.18182 13 5.18182V6.90909ZM13 5.18182C11.8507 5.18182 10.7485 5.63677 9.93582 6.44658C9.12315 7.2564 8.6666 8.35475 8.6666 9.5H10.4C10.4 8.81285 10.6739 8.15384 11.1615 7.66795C11.6491 7.18206 12.3104 6.90909 13 6.90909V5.18182Z" fill="black"/>
</svg>
