<svg width="25" height="23" viewBox="0 0 25 23" fill="none" xmlns="http://www.w3.org/2000/svg">
<g id="Group 1349">
<g id="Group 1350">
<path id="Union" fill-rule="evenodd" clip-rule="evenodd" d="M24.2598 3.46412C23.7335 3.33861 23.181 3.63984 23.0494 4.14188L20.8655 12.3503H8.18306L5.18348 0.727967C5.07823 0.301228 4.68355 0 4.20994 0H0.99986C0.447306 0 0 0.426739 0 0.953888C0 1.48104 0.447306 1.90778 0.99986 1.90778H3.44688L7.49895 17.672C7.6042 18.0988 7.99888 18.4 8.4725 18.4H20.0235C20.5761 18.4 21.0234 17.9733 21.0234 17.4461C21.0234 16.919 20.5761 16.4922 20.0235 16.4922H9.23555L8.65668 14.2581H21.6022C22.0495 14.2581 22.4442 13.9569 22.5758 13.5553L24.9702 4.61883C25.1017 4.11678 24.786 3.58963 24.2598 3.46412ZM10 23C11.1046 23 12 22.1762 12 21.16C12 20.1438 11.1046 19.32 10 19.32C8.89543 19.32 8 20.1438 8 21.16C8 22.1762 8.89543 23 10 23ZM20 21.16C20 22.1762 19.1046 23 18 23C16.8954 23 16 22.1762 16 21.16C16 20.1438 16.8954 19.32 18 19.32C19.1046 19.32 20 20.1438 20 21.16Z" fill="#181818"/>
</g>
</g>
</svg>
